<svg xmlns="http://www.w3.org/2000/svg" viewBox="0 0 709.16 710.66"><defs><style>.cls-1{fill:#231f20;}</style></defs><g id="Layer_1" data-name="Layer 1"><path class="cls-1" d="M760.32,450c0,1.09-200,.66-200,1.75s199.9,6.76,199.87,7.85-199.92-5.46-200-4.38,199.6,12.9,199.53,14S560.07,457.59,560,458.68s199.11,19,199,20.13S559.78,461,559.67,462.11,758.09,487.32,758,488.4s-198.55-24-198.7-22.88S756.79,496.89,756.62,498s-197.72-30.13-197.9-29S755.18,506.42,755,507.49,558.31,471.2,558.09,472.27s195.19,43.63,195,44.69S557.6,474.54,557.35,475.6s193.74,49.72,193.47,50.78-194-48.53-194.3-47.47S748.6,534.68,748.3,535.72s-192.41-54.58-192.72-53.54S745.82,544,745.48,545s-190.6-60.59-191-59.56,188.21,67.7,187.85,68.73-188.61-66.54-189-65.52,186,73.57,185.6,74.58-186.43-72.41-186.84-71.4,183.6,79.35,183.17,80.35S551.25,494,550.8,495s181,85.05,180.57,86-181.54-83.93-182-82.95,178.28,90.68,177.79,91.65S548.32,500.13,547.82,501.1s175.36,96.19,174.84,97.15-175.94-95.09-176.48-94.14,172.28,101.6,171.73,102.54S545,506.13,544.45,507.06,713.48,614,712.9,614.91,543.21,509.06,542.62,510s165.63,112.12,165,113S541.32,511.93,540.7,512.82,702.78,630,702.14,630.92s-162.8-116.18-163.45-115.3,158.37,122.17,157.7,123S537.28,517.5,536.6,518.35s154.5,127,153.81,127.87-155.29-126-156-125.2S684.92,652.76,684.2,653.59s-151.32-130.78-152-130S678.51,660,677.77,660.76s-147.21-135.39-148-134.6S671.88,667,671.12,667.73s-143-139.88-143.73-139.11S665,673.73,664.25,674.48,525.69,530.26,524.89,531,658,680.3,657.18,681s-134-148.44-134.85-147.73S650.74,686.65,649.91,687.35,520.53,534.83,519.69,535.52,643.3,692.77,642.45,693.45,517.85,537,517,537.66s118.68,161,117.8,161.65S515.11,539.08,514.22,539.71,627.86,704.31,627,704.94,512.3,541.07,511.4,541.68,619.87,709.72,619,710.32,509.44,543,508.52,543.55s103.2,171.33,102.26,171.9S506.53,544.78,505.58,545.33s97.82,174.46,96.87,175S503.56,546.49,502.6,547,594.93,724.44,594,725s-93.43-176.84-94.4-176.35,86.75,180.22,85.77,180.7-87.86-179.67-88.85-179.2,81.08,182.84,80.09,183.28-82.2-182.32-83.2-181.89,75.32,185.29,74.31,185.7-76.45-184.81-77.47-184.41,69.48,187.56,68.46,187.94S488.06,553.61,487,554s63.57,189.64,62.54,190-64.73-189.23-65.77-188.9,57.6,191.54,56.55,191.86-58.76-191.17-59.81-190.87S532.1,749.31,531.05,749.6,478.31,556.68,477.25,557s45.48,194.77,44.42,195S475,557.5,473.93,557.73s39.36,196.11,38.3,196.33-40.57-195.84-41.64-195.64,33.21,197.23,32.13,197.42-34.42-197-35.5-196.84,27,198.17,26,198.32-28.28-198-29.36-197.85,20.87,198.92,19.78,199-22.11-198.77-23.2-198.67S475.1,759.31,474,759.4,458.05,560,457,560.1,465.49,759.94,464.4,760s-9.82-199.76-10.91-199.73,2.4,200,1.31,200-3.71-200-4.8-200-3.71,200-4.8,200,2.4-200,1.31-200S436.69,760,435.6,760,444.13,560.17,443,560.1s-16,199.38-17.05,199.3,14.69-199.46,13.61-199.56-22.12,198.79-23.21,198.67,20.87-198.91,19.79-199-28.29,198-29.36,197.85,27-198.16,26-198.33-34.44,197-35.51,196.85,33.21-197.22,32.14-197.42-40.58,195.85-41.64,195.63S427.13,558,426.06,557.73,379.38,752.22,378.32,752s45.48-194.75,44.42-195S370,749.88,368.94,749.6s51.56-193.24,50.51-193.54-58.77,191.18-59.81,190.87,57.59-191.53,56.55-191.86S351.45,744.32,350.42,744,414,554.34,413,554,342.33,741.1,341.31,740.72s69.48-187.54,68.46-187.94S333.31,737.6,332.3,737.19s75.32-185.27,74.32-185.7S324.4,733.82,323.41,733.38s81.08-182.83,80.09-183.29-87.88,179.68-88.86,179.2,86.76-180.2,85.78-180.69S307,725.44,306,724.94,398.35,547.53,397.39,547s-98.91,173.85-99.86,173.31,97.82-174.44,96.88-175S290.13,716,289.2,715.44,392.4,544.12,391.48,543.55,281.94,710.9,281,710.31s108.47-168,107.57-168.64S273.92,705.55,273,704.92,386.66,540.35,385.77,539.71,266.06,700,265.19,699.3,383.87,538.32,383,537.66,258.39,694.11,257.54,693.43,381.15,536.21,380.3,535.52,250.91,688,250.07,687.34,378.49,534,377.67,533.3,243.61,681.74,242.8,681,375.9,531.73,375.1,531,236.52,675.22,235.73,674.47,373.38,529.38,372.6,528.61s-143,139.88-143.73,139.1S370.94,526.94,370.18,526.15,223,661.54,222.22,660.74,368.57,524.43,367.84,523.62s-151.34,130.77-152.06,130S366.28,521.85,365.58,521s-155.32,126-156,125.18,154.5-127,153.83-127.85S204.26,639.51,203.59,638.64,362,516.49,361.3,515.61,198.48,631.79,197.85,630.9,359.92,513.71,359.29,512.82,193,623.89,192.34,623s165.63-112.1,165-113S187.66,615.81,187.08,614.89s169-106.9,168.47-107.83S182.63,607.58,182.08,606.64,354.35,505.05,353.82,504.1s-176,95.09-176.49,94.13,175.36-96.17,174.85-97.14-178.85,89.55-179.34,88.58S351.11,499,350.64,498,169.08,582,168.62,581s181-85,180.58-86-184.09,78.21-184.52,77.21,183.59-79.34,183.17-80.35S161.4,564.21,161,563.2s186-73.55,185.6-74.57-188.63,66.53-189,65.51,188.19-67.69,187.84-68.72S154.85,546,154.51,545s190.23-61.75,189.91-62.79S152,536.76,151.7,535.71,343.77,480,343.48,478.9s-194,48.53-194.3,47.47S342.9,476.66,342.65,475.6,147.18,518,147,517s195.18-43.63,195-44.7S145.22,508.55,145,507.48,341.47,470,341.28,468.91,143.55,499,143.38,498s197.53-31.36,197.37-32.44-198.57,24-198.7,22.88,198.4-25.2,198.28-26.29S141.11,479.89,141,478.81s199.09-19,199-20.13S140.34,470.29,140.27,469.2s199.58-12.88,199.53-14-199.94,5.47-200,4.38,199.88-6.76,199.87-7.85-200-.66-200-1.75,200-.66,200-1.75-199.9-6.76-199.87-7.85,199.92,5.46,200,4.38-199.6-12.9-199.53-14S339.93,442.41,340,441.32s-199.11-19-199-20.13S340.22,439,340.33,437.89,141.91,412.68,142.05,411.6s198.55,24,198.7,22.88S143.21,403.11,143.38,402s197.72,30.13,197.9,29S144.82,393.58,145,392.51s196.67,36.29,196.89,35.22S146.72,384.1,147,383s195.45,42.42,195.7,41.36-193.74-49.72-193.47-50.78,194,48.53,194.3,47.47S151.4,365.32,151.7,364.28s192.41,54.58,192.72,53.54S154.18,356.05,154.52,355s190.6,60.59,191,59.56-188.21-67.7-187.85-68.73,188.61,66.54,189,65.52-186-73.57-185.6-74.58,186.43,72.41,186.84,71.4-183.6-79.35-183.17-80.35,184.07,78.21,184.52,77.21-181-85.05-180.57-86,181.54,83.93,182,82.95-178.28-90.68-177.79-91.65,178.83,89.56,179.33,88.59-175.36-96.19-174.84-97.15,175.94,95.09,176.48,94.14S181.54,294.29,182.09,293.35,355,393.87,355.55,392.94,186.52,286,187.1,285.09,356.79,390.94,357.38,390s-165.63-112.12-165-113,166.33,111.07,167,110.18S197.22,270,197.86,269.08s162.8,116.18,163.45,115.3-158.37-122.17-157.7-123S362.72,382.5,363.4,381.65s-154.5-127-153.81-127.87,155.29,126,156,125.2S215.08,247.24,215.8,246.41s151.32,130.78,152,130S221.49,240,222.23,239.24s147.21,135.39,148,134.6S228.12,233.05,228.88,232.27s143,139.88,143.73,139.11S235,226.27,235.75,225.52,374.31,369.74,375.11,369,242,219.7,242.82,219s134,148.44,134.85,147.73-128.41-153.35-127.58-154S379.47,365.17,380.31,364.48,256.7,207.23,257.55,206.55,382.15,363,383,362.34s-118.68-161-117.8-161.65,119.68,160.23,120.57,159.6S272.14,195.69,273,195.06,387.7,358.93,388.6,358.32,280.13,190.28,281,189.68,390.56,357,391.48,356.45s-103.2-171.33-102.26-171.9,104.25,170.67,105.2,170.12-97.82-174.46-96.87-175S396.44,353.51,397.4,353,305.07,175.56,306,175.05s93.43,176.84,94.4,176.35-86.75-180.22-85.77-180.7,87.86,179.67,88.85,179.2-81.08-182.84-80.09-183.28,82.2,182.32,83.2,181.89-75.32-185.29-74.31-185.7,76.45,184.81,77.47,184.41S340.3,159.66,341.32,159.28,411.94,346.39,413,346,349.4,156.38,350.43,156s64.73,189.23,65.77,188.9-57.6-191.54-56.55-191.86,58.76,191.17,59.81,190.87S367.9,150.69,369,150.4s52.74,192.92,53.8,192.65-45.48-194.77-44.42-195S425,342.5,426.07,342.27s-39.36-196.11-38.3-196.33,40.57,195.84,41.64,195.64S396.2,144.35,397.28,144.16s34.42,197,35.5,196.84-27-198.17-26-198.32,28.28,198,29.36,197.85-20.87-198.92-19.78-199,22.11,198.77,23.2,198.67S424.9,140.69,426,140.6,442,340,443,339.9,434.51,140.06,435.6,140s9.82,199.76,10.91,199.73-2.4-200-1.31-200,3.71,200,4.8,200,3.71-200,4.8-200-2.4,200-1.31,200S463.31,140,464.4,140,455.87,339.83,457,339.9s16-199.38,17.05-199.3S459.32,340.06,460.4,340.16s22.12-198.79,23.21-198.67-20.87,198.91-19.79,199,28.29-198,29.36-197.85-27,198.16-26,198.33,34.44-197,35.51-196.85-33.21,197.22-32.14,197.42S511.17,145.73,512.23,146,472.87,342,473.94,342.27,520.62,147.78,521.68,148s-45.48,194.75-44.42,195S530,150.12,531.06,150.4,479.5,343.64,480.55,343.94s58.77-191.18,59.81-190.87S482.77,344.6,483.81,344.93,548.55,155.68,549.58,156,486,345.66,487,346s70.64-187.13,71.66-186.75-69.48,187.54-68.46,187.94S566.69,162.4,567.7,162.81s-75.32,185.27-74.32,185.7,82.22-182.33,83.21-181.89S495.51,349.45,496.5,349.91s87.88-179.68,88.86-179.2S498.6,350.91,499.58,351.4,593,174.56,594,175.06,501.65,352.47,502.61,353s98.91-173.85,99.86-173.31-97.82,174.44-96.88,175S609.87,184,610.8,184.56,507.6,355.88,508.52,356.45,618.06,189.1,619,189.69,510.5,357.72,511.4,358.33,626.08,194.45,627,195.08,513.34,359.65,514.23,360.29,633.94,200.05,634.81,200.7,516.13,361.68,517,362.34,641.61,205.89,642.46,206.57,518.85,363.79,519.7,364.48,649.09,212,649.93,212.66,521.51,366,522.33,366.7,656.39,218.26,657.2,219,524.1,368.27,524.9,369,663.48,224.78,664.27,225.53,526.62,370.62,527.4,371.39s143-139.88,143.73-139.1S529.06,373.06,529.82,373.85,677,238.46,677.78,239.26,531.43,375.57,532.16,376.38,683.5,245.61,684.22,246.43,533.72,378.15,534.42,379s155.32-126,156-125.18-154.5,127-153.83,127.85S695.74,260.49,696.41,261.36s-158.36,122.15-157.71,123S701.52,268.21,702.15,269.1,540.08,386.29,540.71,387.18,707.05,276.11,707.66,277,542,389.12,542.62,390s169.72-105.84,170.3-104.92S543.88,392,544.45,392.94s172.92-100.52,173.47-99.58S545.65,395,546.18,395.9s176-95.09,176.49-94.13-175.36,96.17-174.85,97.14,178.85-89.55,179.34-88.58S548.89,401,549.36,402,730.92,318,731.38,319s-181,85-180.58,86,184.09-78.21,184.52-77.21S551.73,407.19,552.15,408.2,738.6,335.79,739,336.8s-186,73.55-185.6,74.57,188.63-66.53,189-65.51-188.19,67.69-187.84,68.72S745.15,354,745.49,355s-190.23,61.75-189.91,62.79S748,363.24,748.3,364.29,556.23,420,556.52,421.1s194-48.53,194.3-47.47S557.1,423.34,557.35,424.4,752.82,382,753.05,383s-195.18,43.63-195,44.7S754.78,391.45,755,392.52,558.53,430,558.72,431.09,756.45,401,756.62,402,559.09,433.4,559.25,434.48s198.57-24,198.7-22.88-198.4,25.2-198.28,26.29S758.89,420.11,759,421.19s-199.09,19-199,20.13,199.68-11.61,199.75-10.52-199.58,12.88-199.53,14,199.94-5.47,200-4.38-199.88,6.76-199.87,7.85S760.32,448.91,760.32,450Z" transform="translate(-94.94 -94.85)"/><path class="cls-1" d="M280.89,165.64l.28.84c1,2.81,1.94,4.65,2.82,5.51s2.12.83,3.75-.12a4.59,4.59,0,0,0,2.56-3.76,11.41,11.41,0,0,0-.77-4.07L281,138.34l6.83-4,8.45,25.58a18.08,18.08,0,0,1,1,8.28q-.9,6.06-7.26,9.77t-9.78,1.24q-3.42-2.49-5.56-9l-.29-.84Z" transform="translate(-94.94 -94.85)"/><path class="cls-1" d="M307.67,125.45l8.14-3.68,20.49,32.28-7.81,3.54-3.94-6.77-12.7,5.75-.68,8.85-7.53,3.41Zm4.7,23.73,8.75-4-7.57-12.93Z" transform="translate(-94.94 -94.85)"/><path class="cls-1" d="M360.33,106.83l10.87-3.34L374.64,142l-7,2.16-2.35-26.07c-.05-.75-.13-1.8-.23-3.16s-.2-2.4-.28-3.13l-3.94,34.45-7.34,2.26-9.71-30.25c.08.72.19,1.76.33,3.11s.23,2.39.28,3.15l2.34,26.07-7,2.16-3.44-38.55,11-3.38,9.26,28.3Z" transform="translate(-94.94 -94.85)"/><path class="cls-1" d="M409.41,104.12l-19.72,3.52-.26,8.21,18.1-3.23-.24,6.72-18.1,3.23-.32,9.94,20.64-3.67-.22,6.95-28.25,5,1.28-38.68,27.33-4.87Z" transform="translate(-94.94 -94.85)"/><path class="cls-1" d="M421.85,123a6.77,6.77,0,0,0,.85,3.82c1.07,1.49,3.15,2.13,6.26,1.92a15.09,15.09,0,0,0,4.62-.94,5.77,5.77,0,0,0,3.93-4.67,2.6,2.6,0,0,0-1.22-2.83,14.33,14.33,0,0,0-4.89-1.44l-3.88-.63q-5.7-.94-7.73-2.38-3.44-2.39-2.64-8a14.06,14.06,0,0,1,4.9-8.81q4.18-3.66,11.33-4.15,6-.41,9.72,2.51t3.09,9l-7.58.52c.2-2.29-.55-3.87-2.26-4.71a8.73,8.73,0,0,0-4.44-.65,10,10,0,0,0-5.06,1.59,5.11,5.11,0,0,0-2.31,3.61,2.6,2.6,0,0,0,1.36,2.94,18.07,18.07,0,0,0,4.7,1.25l6.28,1.14a13.37,13.37,0,0,1,6.06,2.33c2,1.65,2.75,4.18,2.27,7.6a14.09,14.09,0,0,1-5.2,9q-4.45,3.75-11.68,4.24-7.38.51-11.12-2.62t-2.9-9.11Z" transform="translate(-94.94 -94.85)"/><path class="cls-1" d="M501.07,102.84a8.63,8.63,0,0,1,0,5.8,10.61,10.61,0,0,1-3.42,5.3,11.85,11.85,0,0,1-3.49,1.87,6.25,6.25,0,0,1,3.36,3.64,9.1,9.1,0,0,1-.19,5.55,13.63,13.63,0,0,1-3.49,5.76,14.7,14.7,0,0,1-3.58,2.68,13.22,13.22,0,0,1-4.83,1.49,28.09,28.09,0,0,1-5.51,0l-17.09-1.48,11.27-37,18.32,1.59Q499.36,98.76,501.07,102.84Zm-25.74,15-3,9.87,9.26.81a10.26,10.26,0,0,0,4-.32,6.2,6.2,0,0,0,3.94-4.41q.87-2.88-1.24-4.18a8.65,8.65,0,0,0-3.63-.95Zm4.36-14.29-2.49,8.16,9.27.81a9,9,0,0,0,4.31-.57,4.59,4.59,0,0,0,2.55-3.12q.76-2.58-1-3.59a13.57,13.57,0,0,0-4.35-1Z" transform="translate(-94.94 -94.85)"/><path class="cls-1" d="M541.5,110.76a9.12,9.12,0,0,1,.6,3.38,9.92,9.92,0,0,1-.92,3.87,13.91,13.91,0,0,1-3.52,4.69,10.22,10.22,0,0,1-5.91,2.55,5.21,5.21,0,0,1,2.4,3.55c.18,1.35-.27,3.28-1.36,5.76l-1,2.38a21.13,21.13,0,0,0-1.24,3.34,2.48,2.48,0,0,0,.52,2.31l-.37.89-8.53-1.75c.11-.84.21-1.51.31-2a17.21,17.21,0,0,1,1-3.12l1.38-3.31c1-2.27,1.19-3.86.69-4.79s-1.89-1.62-4.17-2.09l-8-1.65-6.07,13.91-7.57-1.57,15.52-35.45,18.19,3.75a15.41,15.41,0,0,1,5.58,2.15A7.1,7.1,0,0,1,541.5,110.76Zm-21.4-1.39-4.17,9.52,8.78,1.81a10.93,10.93,0,0,0,4.18.23,5.51,5.51,0,0,0,4.08-3.51q1.39-3.23-.35-4.79a7.91,7.91,0,0,0-3.51-1.41Z" transform="translate(-94.94 -94.85)"/><path class="cls-1" d="M565.48,115l8.48,2.82-6.84,37.62L559,152.68l1.69-7.63-13.23-4.4-6.5,6-7.85-2.61Zm-12.64,20.62,9.11,3L565.16,124Z" transform="translate(-94.94 -94.85)"/><path class="cls-1" d="M593.81,126.05l7.51,3.52-2.66,27.94L615,136l6.68,3.13L598.3,170l-7.16-3.36,2.57-28.49-16.57,21.93-6.68-3.13Z" transform="translate(-94.94 -94.85)"/><path class="cls-1" d="M648.9,157.38a9.32,9.32,0,0,1,2.07,6.94,14,14,0,0,1-2,5.94,30.38,30.38,0,0,1-3.82,5,30.76,30.76,0,0,1-11.63,7.84,17.34,17.34,0,0,1-15.77-1.48L603.86,173l26.79-27.93,13.86,8.59A18.46,18.46,0,0,1,648.9,157.38ZM632.51,154,615,172.22l6.2,3.84q4.75,3,10.55.05a22.71,22.71,0,0,0,6.12-4.7c2.72-2.84,4.31-5.34,4.74-7.5s-.88-4.18-3.93-6.08Z" transform="translate(-94.94 -94.85)"/><path class="cls-1" d="M686.35,185l-5.26,4.4-8.93-7L647.79,203l-6.28-4.9,24.38-20.5-9-7,5.26-4.4Z" transform="translate(-94.94 -94.85)"/><path class="cls-1" d="M717.47,218.44a9.22,9.22,0,0,1,.23,7.23,13.84,13.84,0,0,1-3.49,5.22A31.28,31.28,0,0,1,696,239.34a17.38,17.38,0,0,1-14.87-5.47L669.93,222,703,201.88l11.19,11.86A18,18,0,0,1,717.47,218.44Zm-15-7.49-21.57,13.14,5,5.31q3.84,4.07,10.18,2.75a22.64,22.64,0,0,0,7.12-3q5.06-3.08,6.51-6t-2.24-6.88Z" transform="translate(-94.94 -94.85)"/><path class="cls-1" d="M740.66,258.17l-12-16-7.44,3.48,11.05,14.7-6.11,2.82-11-14.7-9,4.2,12.59,16.76-6.3,2.94-17.24-22.94L730.2,233.1l16.68,22.2Z" transform="translate(-94.94 -94.85)"/><path class="cls-1" d="M729.4,277.81a6.72,6.72,0,0,0-3,2.49q-1.27,2.43,1.12,6.45a15.29,15.29,0,0,0,2.92,3.7,5.75,5.75,0,0,0,5.94,1.39,2.58,2.58,0,0,0,2-2.36,14.38,14.38,0,0,0-.92-5l-1.19-3.74q-1.73-5.52-1.37-8c.39-2.76,2.39-4.75,6-6a14.05,14.05,0,0,1,10.07.41q5.16,2.07,8.82,8.23,3.06,5.14,2.15,9.81T755.21,292l-3.89-6.54q3.21-1.28,3.18-4.13a8.69,8.69,0,0,0-1.43-4.27,10,10,0,0,0-3.69-3.79,5.07,5.07,0,0,0-4.26-.43,2.59,2.59,0,0,0-2,2.54,18.08,18.08,0,0,0,1,4.75l1.82,6.12a13.48,13.48,0,0,1,.65,6.46q-.86,3.79-5.75,5.46a14.16,14.16,0,0,1-10.38-.58q-5.34-2.29-9.05-8.51T718.72,278q1.1-4.75,6.82-6.69Z" transform="translate(-94.94 -94.85)"/><path class="cls-1" d="M735.4,313.12l-3.5-7.05,37.49-9.61,3.49,7Z" transform="translate(-94.94 -94.85)"/><path class="cls-1" d="M774.14,338.24a5.64,5.64,0,0,0,3.86-5,9.68,9.68,0,0,0-.73-4.19,11.77,11.77,0,0,0-6.23-6.4q-4.56-2.16-11.56-1t-8.8,4.64a8.38,8.38,0,0,0-.29,7.21,11.45,11.45,0,0,0,4.71,5.7,13,13,0,0,0,7.22,1.9l-3.2-8.15,6.37-1.05,5.78,14.68L750.78,350l-1.92-4.87,4.48-1.54a25.17,25.17,0,0,1-5.35-3.2,16.75,16.75,0,0,1-4.76-6.85q-2.76-7,.75-12.35,3.45-5.52,12.62-7.06a26.45,26.45,0,0,1,16.72,2.23,21.26,21.26,0,0,1,10.49,11.52q2.64,6.72.55,11.4a10.9,10.9,0,0,1-7.37,6.21Z" transform="translate(-94.94 -94.85)"/><path class="cls-1" d="M791.3,354.4l2.07,8-23.23,15.75,27-1.16,1.84,7.14-38.66,1.68-2-7.66L781.94,362l-27.46,1.19-1.84-7.13Z" transform="translate(-94.94 -94.85)"/><path class="cls-1" d="M774.16,398.61a6.8,6.8,0,0,0-3.76,1.13c-1.41,1.17-1.9,3.29-1.47,6.38a14.85,14.85,0,0,0,1.27,4.54,5.75,5.75,0,0,0,4.93,3.59,2.61,2.61,0,0,0,2.74-1.43,14.2,14.2,0,0,0,1.09-5l.35-3.92c.36-3.84,1-6.46,1.82-7.88,1.43-2.4,4-3.46,7.83-3.2a14.05,14.05,0,0,1,9.13,4.26q3.95,3.92,4.95,11,.83,5.92-1.82,9.87t-8.77,3.73l-1.06-7.53c2.3,0,3.82-.82,4.54-2.58a8.89,8.89,0,0,0,.33-4.49,10,10,0,0,0-1.94-4.92,5.08,5.08,0,0,0-3.77-2.05,2.61,2.61,0,0,0-2.84,1.56,18.38,18.38,0,0,0-.91,4.77l-.69,6.35a13.36,13.36,0,0,1-1.9,6.21c-1.5,2.11-4,3-7.41,2.8a14.07,14.07,0,0,1-9.34-4.54q-4.05-4.19-5.06-11.35-1-7.33,1.82-11.28t8.88-3.53Z" transform="translate(-94.94 -94.85)"/><path class="cls-1" d="M780.83,448l-.87-.19c-2.92-.6-5-.74-6.17-.45s-1.81,1.39-1.84,3.27a4.58,4.58,0,0,0,1.89,4.14,11.28,11.28,0,0,0,3.88,1.45l26.38,6.06-.13,7.91-26.25-6a17.81,17.81,0,0,1-7.6-3.44q-4.71-3.9-4.6-11.27t4-9q3.88-1.64,10.54-.11l.87.19Z" transform="translate(-94.94 -94.85)"/><path class="cls-1" d="M801.91,491.37l-.93,8.89-38.22,1.37.9-8.53,7.83,0L773,479.26l-7.3-5.06.87-8.22Zm-22.84-7.93-1,9.55h15Z" transform="translate(-94.94 -94.85)"/><path class="cls-1" d="M791.4,546.21l-2.61,11.07-35-16.49,1.69-7.17,23.69,11.13c.67.34,1.62.8,2.85,1.4s2.17,1,2.83,1.34l-27.74-20.8,1.76-7.47,31,6.89q-1-.43-2.85-1.29c-1.23-.56-2.18-1-2.86-1.34l-23.69-11.14,1.69-7.17,35,16.49-2.63,11.2-29.1-6.29Z" transform="translate(-94.94 -94.85)"/><path class="cls-1" d="M769,590l6.93-18.8-7-4.37L762.56,584l-5.68-3.59,6.36-17.26-8.43-5.29-7.24,19.66-5.89-3.7,9.92-26.92,32.74,20.63-9.6,26Z" transform="translate(-94.94 -94.85)"/><path class="cls-1" d="M746.34,591.13a6.81,6.81,0,0,0-3.73-1.2c-1.83.17-3.43,1.65-4.82,4.44a15.15,15.15,0,0,0-1.53,4.46,5.77,5.77,0,0,0,2,5.75,2.59,2.59,0,0,0,3.05.37,14.25,14.25,0,0,0,3.72-3.49l2.51-3q3.69-4.44,6-5.46,3.8-1.76,8.26,1.78a14.09,14.09,0,0,1,5.12,8.68q1,5.46-2.15,11.87c-1.77,3.58-4.14,6-7.08,7.12s-6.06.55-9.34-1.89l3.38-6.81q2.82,2,5.21.44a8.75,8.75,0,0,0,2.8-3.51,9.9,9.9,0,0,0,1.19-5.16,5.08,5.08,0,0,0-1.94-3.82,2.6,2.6,0,0,0-3.23-.31,17.66,17.66,0,0,0-3.45,3.42l-4.16,4.84a13.34,13.34,0,0,1-5.08,4q-3.65,1.35-7.7-1.88a14.09,14.09,0,0,1-5.13-9q-1-5.73,2.25-12.22t7.88-8.27q4.59-1.65,9.32,2.11Z" transform="translate(-94.94 -94.85)"/><path class="cls-1" d="M723.58,669.69a8.7,8.7,0,0,1-5-2.91,10.59,10.59,0,0,1-2.82-5.64,11.76,11.76,0,0,1,.16-3.95,6.24,6.24,0,0,1-4.84,1,9.09,9.09,0,0,1-4.69-3,13.62,13.62,0,0,1-3.19-5.92,14.39,14.39,0,0,1-.49-4.45,13,13,0,0,1,1.17-4.92,28.47,28.47,0,0,1,2.76-4.77l9.95-14,26.18,28.5-10.67,15C729.34,668.43,726.5,670.09,723.58,669.69Zm.14-29.79-7-7.59-5.39,7.58a10.21,10.21,0,0,0-1.78,3.65,6.2,6.2,0,0,0,1.8,5.63q2,2.21,4.23,1.05a8.69,8.69,0,0,0,2.66-2.64Zm10.1,11-5.77-6.29-5.39,7.58a8.94,8.94,0,0,0-1.7,4,4.62,4.62,0,0,0,1.39,3.78q1.85,2,3.6,1a13.75,13.75,0,0,0,3-3.26Z" transform="translate(-94.94 -94.85)"/><path class="cls-1" d="M696.28,700.48a9.19,9.19,0,0,1-3.21-1.19,10.05,10.05,0,0,1-2.88-2.76,13.94,13.94,0,0,1-2.25-5.41,10.17,10.17,0,0,1,.8-6.39,5.24,5.24,0,0,1-4.28.27q-1.89-.79-4.28-4.09l-1.52-2.11a21.88,21.88,0,0,0-2.25-2.76,2.5,2.5,0,0,0-2.26-.72l-.58-.77,5.84-6.46c.67.51,1.19.94,1.57,1.29a17.87,17.87,0,0,1,2.18,2.45l2.15,2.87c1.47,2,2.73,3,3.78,3s2.35-.8,3.91-2.53l5.48-6.06-8.91-12.28,5.18-5.74,22.7,31.35L705,696.24a15.7,15.7,0,0,1-4.69,3.73A7.2,7.2,0,0,1,696.28,700.48Zm12.05-17.74-6.1-8.42-6,6.65a11,11,0,0,0-2.31,3.48,5.51,5.51,0,0,0,1,5.3c1.38,1.89,2.81,2.6,4.31,2.13a7.85,7.85,0,0,0,3-2.32Z" transform="translate(-94.94 -94.85)"/><path class="cls-1" d="M680.54,719.05l-6.72,5.89-29-24.93,6.45-5.65,5.73,5.33,10.48-9.2-1.92-8.66,6.22-5.45Zm-11.39-21.33-7.22,6.33,11,10.17Z" transform="translate(-94.94 -94.85)"/><path class="cls-1" d="M656.69,737.86l-6.83,4.71-22.78-16.39,10.36,25-6.06,4.18-14.87-35.73,6.51-4.49,23.3,16.6-10.57-25.37,6.07-4.19Z" transform="translate(-94.94 -94.85)"/><path class="cls-1" d="M601.86,769.62a9.3,9.3,0,0,1-7-1.71,13.85,13.85,0,0,1-4.09-4.75,29.84,29.84,0,0,1-2.4-5.82,30.76,30.76,0,0,1-.9-14,17.32,17.32,0,0,1,9.22-12.87l14.42-7.63,10.6,37.22-14.41,7.63A18.2,18.2,0,0,1,601.86,769.62Zm11.2-12.44-6.93-24.29-6.45,3.41q-4.93,2.63-5.36,9.09a22.77,22.77,0,0,0,1,7.65q1.62,5.69,4.09,7.88t7.23-.33Z" transform="translate(-94.94 -94.85)"/><path class="cls-1" d="M559.06,788l-1.14-6.76,10.52-4.18-5.38-31.39,7.4-2.94,5.38,31.38,10.58-4.2,1.14,6.76Z" transform="translate(-94.94 -94.85)"/><path class="cls-1" d="M514.43,797.93a9.26,9.26,0,0,1-6.35-3.48,13.72,13.72,0,0,1-2.73-5.65,29.84,29.84,0,0,1-.81-6.24,30.66,30.66,0,0,1,2.76-13.75,17.37,17.37,0,0,1,12.24-10l15.9-3.63.6,38.7-15.89,3.63A18.32,18.32,0,0,1,514.43,797.93Zm14-9.12-.4-25.25L521,765.19q-5.46,1.24-7.53,7.38a22.79,22.79,0,0,0-1,7.64c.06,3.94.69,6.83,1.91,8.67s3.56,2.36,7.07,1.56Z" transform="translate(-94.94 -94.85)"/><path class="cls-1" d="M468.4,797.74l19.91-2.25.78-8.17-18.27,2.06.66-6.7,18.28-2.06.95-9.9-20.83,2.35.67-6.93,28.51-3.21-3.75,38.52-27.59,3.11Z" transform="translate(-94.94 -94.85)"/><path class="cls-1" d="M457.23,778a6.77,6.77,0,0,0-.66-3.87c-1-1.54-3-2.29-6.15-2.23a15.18,15.18,0,0,0-4.66.69,5.74,5.74,0,0,0-4.17,4.46,2.59,2.59,0,0,0,1.08,2.88,14.23,14.23,0,0,0,4.8,1.7l3.84.83q5.65,1.24,7.6,2.78,3.3,2.57,2.21,8.16a14,14,0,0,1-5.36,8.54c-2.9,2.29-6.75,3.47-11.52,3.55q-6,.11-9.58-3T432,793.33l7.61-.13c-.33,2.29.34,3.89,2,4.83a8.81,8.81,0,0,0,4.41.88,10.15,10.15,0,0,0,5.13-1.32,5.07,5.07,0,0,0,2.49-3.48,2.6,2.6,0,0,0-1.2-3,17.69,17.69,0,0,0-4.62-1.5l-6.22-1.46a13.41,13.41,0,0,1-5.92-2.65c-1.91-1.76-2.54-4.32-1.87-7.71a14.13,14.13,0,0,1,5.66-8.71q4.65-3.5,11.89-3.62,7.39-.12,11,3.2t2.41,9.25Z" transform="translate(-94.94 -94.85)"/><path class="cls-1" d="M423.7,765.38l7.84.54-10.66,37.21-7.84-.55Z" transform="translate(-94.94 -94.85)"/><path class="cls-1" d="M382.43,786.12a5.65,5.65,0,0,0,2.36,5.85,9.63,9.63,0,0,0,4,1.48,11.73,11.73,0,0,0,8.68-2.14q4.17-2.85,6.71-9.47t.44-9.94a8.41,8.41,0,0,0-6.08-3.89,11.35,11.35,0,0,0-7.3,1.19,13,13,0,0,0-5.28,5.27l8.65,1.35-2.32,6-15.58-2.44,7.4-19.4,5.18.81-.94,4.63a25.23,25.23,0,0,1,5.46-3,16.67,16.67,0,0,1,8.32-.65q7.44,1.15,10.28,6.88,3,5.77-.28,14.46a26.4,26.4,0,0,1-10.37,13.3,21.27,21.27,0,0,1-15.24,3.24q-7.14-1.11-10.12-5.29a10.93,10.93,0,0,1-1.64-9.49Z" transform="translate(-94.94 -94.85)"/><path class="cls-1" d="M359.84,792.77l-8-2.26-1.87-28-12.64,23.89-7.09-2,18.08-34.23,7.61,2.16,2,28.54,12.83-24.31,7.09,2Z" transform="translate(-94.94 -94.85)"/><path class="cls-1" d="M330.34,755.65a6.8,6.8,0,0,0,.92-3.81q-.43-2.72-4.76-4.48a15.07,15.07,0,0,0-4.56-1.21,5.75,5.75,0,0,0-5.59,2.45,2.59,2.59,0,0,0-.15,3.08,14.15,14.15,0,0,0,3.74,3.45l3.2,2.29q4.69,3.38,5.88,5.55,2,3.66-1.19,8.37a14.09,14.09,0,0,1-8.29,5.73q-5.37,1.42-12-1.29-5.54-2.28-7.61-6.56t1.22-9.45l7,2.89q-1.8,3-.07,5.22a8.85,8.85,0,0,0,3.71,2.55,10,10,0,0,0,5.23.81,5.09,5.09,0,0,0,3.67-2.21,2.6,2.6,0,0,0,.08-3.24,17.94,17.94,0,0,0-3.66-3.2l-5.13-3.8a13.3,13.3,0,0,1-4.39-4.78Q306,750.47,309,746.2a14.1,14.1,0,0,1,8.64-5.76q5.66-1.4,12.35,1.36c4.57,1.88,7.5,4.3,8.82,7.27s.83,6.13-1.44,9.45Z" transform="translate(-94.94 -94.85)"/><path class="cls-1" d="M284.39,736.42l.6-.66c2-2.24,3.11-4,3.44-5.14s-.31-2.26-1.93-3.22A4.58,4.58,0,0,0,282,727a11.55,11.55,0,0,0-3.18,2.65l-18.32,19.93-6.81-4,18.23-19.83a18.05,18.05,0,0,1,6.75-4.9q5.73-2.16,12.07,1.59t5.83,7.94q-.5,4.2-5.12,9.22l-.6.66Z" transform="translate(-94.94 -94.85)"/><path class="cls-1" d="M236.26,732.6l-7.18-5.32,18.21-33.62,6.9,5.1-4,6.73,11.2,8.3,8.06-3.72,6.65,4.92Zm18.43-15.66L247,711.22l-7.6,12.91Z" transform="translate(-94.94 -94.85)"/><path class="cls-1" d="M194.35,695.75l-8.23-7.86,32-21.82,5.33,5.09-21.6,14.77-2.65,1.75c-1.13.76-2,1.35-2.59,1.77l32-13.38,5.55,5.3-21.66,23.25,2.56-1.81c1.11-.77,2-1.37,2.61-1.78l21.6-14.78,5.33,5.09-32,21.83-8.32-7.95,20.17-21.9Z" transform="translate(-94.94 -94.85)"/><path class="cls-1" d="M168,654.28l12.72,15.48L188,666,176.3,651.76l6-3.08L194,662.88l8.82-4.59L189.47,642.1l6.18-3.21,18.21,22.16-34.35,17.83-17.63-21.45Z" transform="translate(-94.94 -94.85)"/><path class="cls-1" d="M178.38,634.2a6.83,6.83,0,0,0,2.92-2.62q1.17-2.49-1.4-6.39a15.07,15.07,0,0,0-3.08-3.57,5.76,5.76,0,0,0-6-1.14,2.61,2.61,0,0,0-1.86,2.45,14.25,14.25,0,0,0,1.14,5l1.35,3.69c1.31,3.63,1.88,6.26,1.71,7.91q-.41,4.15-5.71,6.23a14.06,14.06,0,0,1-10.08,0q-5.24-1.85-9.16-7.84-3.28-5-2.58-9.71t6.35-7.11l4.17,6.36q-3.15,1.42-3,4.27a8.67,8.67,0,0,0,1.61,4.19,9.92,9.92,0,0,0,3.85,3.63,5.08,5.08,0,0,0,4.28.25,2.59,2.59,0,0,0,1.9-2.63,17.42,17.42,0,0,0-1.21-4.7l-2.08-6a13.42,13.42,0,0,1-.93-6.43c.46-2.55,2.29-4.45,5.51-5.7a14.09,14.09,0,0,1,10.39.13c3.63,1.36,6.76,4.07,9.41,8.1s3.76,7.79,3.17,11-2.78,5.53-6.53,7Z" transform="translate(-94.94 -94.85)"/><path class="cls-1" d="M122,574.89a8.6,8.6,0,0,1,5-2.86,10.53,10.53,0,0,1,6.29.4,12.11,12.11,0,0,1,3.33,2.14,6.26,6.26,0,0,1,1.54-4.71,9.13,9.13,0,0,1,4.94-2.54,13.6,13.6,0,0,1,6.73.23,14.48,14.48,0,0,1,4.08,1.83,13,13,0,0,1,3.66,3.49,27.92,27.92,0,0,1,2.72,4.79l7,15.64-37.82,8.21L122,584.75Q119.29,578.38,122,574.89Zm11,18.33,8.34-1.81-3.82-8.48a8.94,8.94,0,0,0-2.6-3.49,4.61,4.61,0,0,0-4-.71c-1.76.4-2.64,1.27-2.65,2.63a13.61,13.61,0,0,0,1.27,4.27Zm14.6-3.17,10.08-2.2-3.82-8.47a9.91,9.91,0,0,0-2.25-3.38,6.17,6.17,0,0,0-5.76-1.3c-2,.44-3,1.48-3,3.12a8.75,8.75,0,0,0,.93,3.64Z" transform="translate(-94.94 -94.85)"/><path class="cls-1" d="M109.27,535.75a9.2,9.2,0,0,1,2.65-2.17,10,10,0,0,1,3.83-1.08,14,14,0,0,1,5.81.79,10.16,10.16,0,0,1,5.11,3.92,5.2,5.2,0,0,1,1.93-3.82c1.09-.82,3-1.37,5.69-1.62l2.59-.26a20.22,20.22,0,0,0,3.52-.54,2.44,2.44,0,0,0,1.76-1.58l1-.11,2.62,8.3c-.78.32-1.41.55-1.9.71a19.12,19.12,0,0,1-3.22.64l-3.57.39c-2.44.27-4,.85-4.51,1.74s-.5,2.44.2,4.66l2.46,7.79L150.3,552l2.32,7.38-38.52,3.71-5.58-17.7a15.45,15.45,0,0,1-.85-5.93A7.13,7.13,0,0,1,109.27,535.75Zm9.2,19.37,10.35-1-2.7-8.55a10.84,10.84,0,0,0-1.83-3.76,5.52,5.52,0,0,0-5.05-1.85q-3.49.35-4,2.64a7.77,7.77,0,0,0,.49,3.75Z" transform="translate(-94.94 -94.85)"/><path class="cls-1" d="M101.24,512.73,99.57,504l36.18-12.35,1.61,8.43-7.5,2.23,2.61,13.7,8.44,2.74,1.54,8.12Zm24.16,1-1.8-9.43-14.34,4.32Z" transform="translate(-94.94 -94.85)"/><path class="cls-1" d="M97.13,482.62l-.59-8.27L122.23,463l-26.77-3.73L94.94,452l38.33,5.32.57,7.89-26.13,11.65,27.23,3.77.52,7.36Z" transform="translate(-94.94 -94.85)"/><path class="cls-1" d="M97.53,419.32a9.26,9.26,0,0,1,5-5.2,13.79,13.79,0,0,1,6.17-1.13,30.29,30.29,0,0,1,6.23.87,30.71,30.71,0,0,1,12.53,6.31,17.35,17.35,0,0,1,6.44,14.47l-.71,16.29-37.48-9.68L96.47,425A18.31,18.31,0,0,1,97.53,419.32Zm5.07,16,24.45,6.31.32-7.29q.24-5.6-5.12-9.22a22.58,22.58,0,0,0-7.1-3q-5.72-1.49-8.86-.47T102.91,428Z" transform="translate(-94.94 -94.85)"/><path class="cls-1" d="M103.29,373.11l6.41,2.43-1.7,11.2L137.81,398l-1.2,7.87L106.8,394.61l-1.71,11.25-6.41-2.43Z" transform="translate(-94.94 -94.85)"/><path class="cls-1" d="M117.25,329.59a9.24,9.24,0,0,1,6.2-3.73,13.74,13.74,0,0,1,6.25.49,30,30,0,0,1,5.8,2.46A30.7,30.7,0,0,1,146,338.13a17.37,17.37,0,0,1,2.49,15.64l-4.89,15.56-33.71-19,4.89-15.56A18,18,0,0,1,117.25,329.59Zm.77,16.72,22,12.4,2.19-7q1.68-5.34-2.57-10.23a22.63,22.63,0,0,0-6.07-4.76q-5.15-2.91-8.45-2.73c-2.19.11-3.83,1.89-4.91,5.32Z" transform="translate(-94.94 -94.85)"/><path class="cls-1" d="M140.66,290l-8.12,18.32,6.66,4.8,7.46-16.81,5.44,4L144.64,317l8.07,5.83,8.49-19.16,5.64,4.07L155.21,334l-31.35-22.7,11.26-25.38Z" transform="translate(-94.94 -94.85)"/><path class="cls-1" d="M163.3,290.22a6.76,6.76,0,0,0,3.65,1.43q2.75-.06,5.09-4.11a15.36,15.36,0,0,0,1.82-4.35,5.76,5.76,0,0,0-1.68-5.87,2.57,2.57,0,0,0-3-.57,14.22,14.22,0,0,0-3.93,3.24l-2.7,2.86q-4,4.2-6.3,5.08-3.9,1.5-8.13-2.31a14.07,14.07,0,0,1-4.55-9q-.69-5.5,2.9-11.71,3-5.18,7.52-6.65t9.21,2.49l-3.82,6.58c-1.79-1.46-3.51-1.71-5.16-.77a8.7,8.7,0,0,0-3,3.32,10,10,0,0,0-1.52,5.07,5.1,5.1,0,0,0,1.7,3.94,2.61,2.61,0,0,0,3.2.52,17.8,17.8,0,0,0,3.66-3.19l4.46-4.57a13.49,13.49,0,0,1,5.33-3.71q3.74-1.1,7.56,2.37a14,14,0,0,1,4.54,9.35q.61,5.77-3,12c-2.48,4.26-5.27,6.85-8.4,7.74s-6.18,0-9.16-2.7Z" transform="translate(-94.94 -94.85)"/><path class="cls-1" d="M191.24,267.79l-4.45,6.48-26.66-28.06,4.45-6.48Z" transform="translate(-94.94 -94.85)"/><path class="cls-1" d="M194.3,221.71a5.67,5.67,0,0,0-6.24-.94,9.58,9.58,0,0,0-3.29,2.68,11.72,11.72,0,0,0-2.56,8.57q.34,5,4.76,10.58T195.3,248a8.37,8.37,0,0,0,6.44-3.28,11.32,11.32,0,0,0,2.68-6.89,13,13,0,0,0-1.86-7.22L197,237.41l-4-5.06,10-12.19,13,16.22-3.32,4.05-3.52-3.16a25.39,25.39,0,0,1-.19,6.23,16.76,16.76,0,0,1-3.66,7.49q-4.77,5.82-11.15,5.38t-12.32-7.58a26.48,26.48,0,0,1-6.2-15.69,21.24,21.24,0,0,1,4.95-14.78q4.58-5.58,9.68-6a11,11,0,0,1,9,3.4Z" transform="translate(-94.94 -94.85)"/><path class="cls-1" d="M200,198.88l6-5.74,25.1,12.56-14.21-23,5.32-5.1,20.37,32.91L236.85,216l-25.64-12.68,14.47,23.37-5.33,5.1Z" transform="translate(-94.94 -94.85)"/><path class="cls-1" d="M246.92,192.21a6.81,6.81,0,0,0,2.83,2.73c1.7.65,3.79,0,6.27-1.85a15.05,15.05,0,0,0,3.35-3.33,5.75,5.75,0,0,0,.7-6.06,2.58,2.58,0,0,0-2.58-1.68,14.21,14.21,0,0,0-4.87,1.48L249,185.11c-3.52,1.57-6.11,2.32-7.76,2.27q-4.19-.1-6.62-5.25a14,14,0,0,1-.76-10q1.47-5.36,7.17-9.7,4.75-3.63,9.5-3.26T258.1,165l-6,4.61c-1.09-2-2.59-2.93-4.48-2.69a8.7,8.7,0,0,0-4.06,1.9,10,10,0,0,0-3.35,4.11,5.07,5.07,0,0,0,.06,4.28,2.57,2.57,0,0,0,2.75,1.71,17.72,17.72,0,0,0,4.61-1.54l5.87-2.51a13.24,13.24,0,0,1,6.34-1.38q3.87.41,6.08,5.09a14.08,14.08,0,0,1,.61,10.37c-1.1,3.72-3.58,7-7.41,10s-7.5,4.3-10.73,3.93-5.71-2.37-7.43-6Z" transform="translate(-94.94 -94.85)"/></g></svg>